Tak Shack - A new HD movie every Friday

Please seed!






General
Unique ID                        : 181078763041232027463346984177404763389 (0x883A804EDD36DB64A4310CB365A05CFD)
Complete name                    : Thunderbirds.Are.Go.720p.HD.Surround[Cantisque]-TakShack.mkv
Format                           : Matroska
File size                        : 4.37 GiB
Duration                         : 1h 29mn
Overall bit rate                 : 7 013 Kbps
Movie name                       : thunderbirdsarego
Encoded date                     : UTC 2011-05-19 00:10:42
Writing application              : mkvmerge v4.6.0 (\\\\\\\\\\\\\\\'Still Crazy After All These Years\\\\\\\\\\\\\\\') built on Mar 10 2011 02:50:32
Writing library                  : libebml v1.2.0 + libmatroska v1.1.0

Video
ID                               : 1
Format                           : AVC
Format/Info                      : Advanced Video Codec
Format profile                   : High@L4.0
Format settings, CABAC           : Yes
Format settings, ReFrames        : 3 frames
Codec ID                         : V_MPEG4/ISO/AVC
Duration                         : 1h 29mn
Bit rate mode                    : Variable
Bit rate                         : 6 627 Kbps
Maximum bit rate                 : 25.0 Mbps
Width                            : 1 280 pixels
Height                           : 546 pixels
Display aspect ratio             : 2.35:1
Frame rate                       : 50.000 fps
Color space                      : YUV
Chroma subsampling               : 4:2:0
Bit depth                        : 8 bits
Scan type                        : Progressive
Bits/(Pixel*Frame)               : 0.190
Stream size                      : 4.05 GiB (93%)
Writing library                  : x264 core 114 r1924 08d04a4
Encoding settings                : cabac=1 / ref=3 / deblock=1:0:0 / analyse=0x3:0x133 / me=umh / subme=7 / psy=1 / psy_rd=1.00:0.00 / mixed_ref=1 / me_range=16 / chroma_me=1 / trellis=1 / 8x8dct=1 / cqm=0 / deadzone=21,11 / fast_pskip=1 / chroma_qp_offset=-2 / threads=12 / sliced_threads=0 / nr=0 / decimate=1 / interlaced=0 / constrained_intra=0 / bframes=3 / b_pyramid=0 / b_adapt=1 / b_bias=0 / direct=1 / weightb=1 / open_gop=0 / weightp=2 / keyint=500 / keyint_min=50 / scenecut=40 / intra_refresh=0 / rc_lookahead=40 / rc=2pass / mbtree=1 / bitrate=6627 / ratetol=1.0 / qcomp=0.60 / qpmin=0 / qpmax=69 / qpstep=4 / cplxblur=20.0 / qblur=0.5 / vbv_maxrate=25000 / vbv_bufsize=25000 / nal_hrd=vbr / ip_ratio=1.40 / aq=1:1.00

Audio
ID                               : 2
Format                           : AC-3
Format/Info                      : Audio Coding 3
Mode extension                   : CM (complete main)
Codec ID                         : A_AC3
Duration                         : 1h 29mn
Bit rate mode                    : Constant
Bit rate                         : 384 Kbps
Channel(s)                       : 6 channels
Channel positions                : Front: L C R, Side: L R, LFE
Sampling rate                    : 48.0 KHz
Bit depth                        : 16 bits
Compression mode                 : Lossy
Stream size                      : 245 MiB (5%)